<?xml version="1.0" standalone="no"?><!DOCTYPE svg PUBLIC "-//W3C//DTD SVG 1.1//EN" "http://www.w3.org/Graphics/SVG/1.1/DTD/svg11.dtd"><svg t="1606375596950" class="icon" viewBox="0 0 1024 1024" version="1.1" xmlns="http://www.w3.org/2000/svg" p-id="2970" xmlns:xlink="http://www.w3.org/1999/xlink" width="200" height="200"><defs><style type="text/css"></style></defs><path d="M512 0a512 512 0 1 1 0 1024A512 512 0 0 1 512 0z m0 153.6a51.2 51.2 0 0 0-51.2 51.2v256H204.8a51.2 51.2 0 0 0 0 102.4h255.943111l0.056889 256a51.2 51.2 0 0 0 102.4 0V563.2h256a51.2 51.2 0 0 0 0-102.4H563.2V204.8a51.2 51.2 0 0 0-51.2-51.2z" fill="#bfbfbf" p-id="2971"></path></svg>